<?xml version="1.0" standalone="no"?><!DOCTYPE svg PUBLIC "-//W3C//DTD SVG 1.1//EN" "http://www.w3.org/Graphics/SVG/1.1/DTD/svg11.dtd"><svg t="1631776291355" class="icon" viewBox="0 0 1357 1024" version="1.1" xmlns="http://www.w3.org/2000/svg" p-id="1395" xmlns:xlink="http://www.w3.org/1999/xlink" width="265.0390625" height="200"><defs><style type="text/css"></style></defs><path d="M860.961391 799.343304l-35.884521 36.08487a32.01113 32.01113 0 0 0 14.09113 53.648696 31.610435 31.610435 0 0 0 30.786783-8.525913l35.884521-36.107131 35.906783 36.107131a31.610435 31.610435 0 0 0 53.337043-14.180174 32.01113 32.01113 0 0 0-8.45913-30.942609l-35.906783-36.062609 35.884522-36.10713a32.01113 32.01113 0 0 0-14.09113-53.626435 31.610435 31.610435 0 0 0-30.786783 8.503652l-35.884522 36.107131-35.906782-36.062609a31.610435 31.610435 0 0 0-53.337044 14.157913 32.01113 32.01113 0 0 0 8.459131 30.942609l35.906782 36.062608z m260.630261-161.213217c-48.083478-67.584-126.797913-111.638261-215.752348-111.638261-146.387478 0-265.082435 119.318261-265.082434 266.462609 0 89.444174 43.831652 168.581565 111.059478 216.909913h-369.975652c-54.450087 0-98.615652-44.388174-98.615653-99.149913V241.41913c0-54.761739 44.165565-99.149913 98.615653-99.149913h49.330087v55.78574c0 51.333565 41.405217 92.93913 92.471652 92.93913 51.066435 0 92.471652-41.627826 92.471652-92.93913V142.246957h172.588522v55.785739a93.050435 93.050435 0 0 0 46.235826 80.495304 92.048696 92.048696 0 0 0 92.471652 0 93.050435 93.050435 0 0 0 46.235826-80.495304V142.246957h49.307826c54.472348 0 98.637913 44.388174 98.637913 99.149913v396.688695zM37.932522 339.300174H21.325913a11.174957 11.174957 0 1 0 0 22.216348h16.584348v16.673391c0 6.121739 4.941913 11.108174 11.041391 11.108174a11.085913 11.085913 0 0 0 11.063652-11.130435v-16.65113h16.584348a11.174957 11.174957 0 1 0 0-22.216348h-16.584348v-16.673391a11.01913 11.01913 0 1 0-22.127304 0v16.695652z m187.881739-288.901565H187.169391a11.085913 11.085913 0 0 0-10.685217 11.108174c0 6.010435 4.719304 10.907826 10.685217 11.130434h38.689392v38.867479a11.01913 11.01913 0 1 0 22.105043 0V72.614957h38.689391a11.174957 11.174957 0 1 0 0-22.216348h-38.689391V11.486609a11.01913 11.01913 0 1 0-22.105043 0v38.889739z m1059.439304 133.342608h-27.603478a11.174957 11.174957 0 1 0 0 22.216348h27.603478V233.73913a11.01913 11.01913 0 1 0 22.127305 0V205.957565h27.625739a11.174957 11.174957 0 1 0 0-22.216348H1307.38087V155.937391a11.085913 11.085913 0 0 0-11.041392-10.729739 11.085913 11.085913 0 0 0-11.063652 10.729739v27.803826z m-860.249043 218.824348c-17.029565 0-30.809043 13.868522-30.809044 30.96487 0 17.118609 13.801739 30.98713 30.809044 30.98713h554.807652c17.029565 0 30.831304-13.868522 30.831304-30.98713 0-17.096348-13.801739-30.98713-30.831304-30.987131H425.004522z m0 185.878261c-17.029565 0-30.809043 13.890783-30.809044 31.009391s13.801739 30.98713 30.809044 30.987131H609.947826c10.99687 0 21.192348-5.921391 26.690783-15.493565 5.498435-9.572174 5.498435-21.392696 0-30.987131a30.786783 30.786783 0 0 0-26.713044-15.493565h-184.921043z m0 185.922783c-17.029565 0-30.809043 13.890783-30.809044 30.98713 0 17.14087 13.801739 30.98713 30.809044 30.987131h123.302956c17.007304 0 30.809043-13.868522 30.809044-30.987131 0-17.096348-13.801739-30.98713-30.809044-30.98713h-123.302956z m98.615652-731.247305c23.841391 0 43.186087 19.411478 43.186087 43.386435v111.526957a43.27513 43.27513 0 0 1-43.186087 43.408695 43.27513 43.27513 0 0 1-43.141565-43.408695v-111.526957c0-11.50887 4.563478-22.550261 12.644174-30.675478 8.102957-8.147478 19.077565-12.710957 30.497391-12.710957z m357.554087 0c23.81913 0 43.163826 19.411478 43.163826 43.386435v111.526957c0 15.515826-8.236522 29.829565-21.593044 37.598608a42.963478 42.963478 0 0 1-43.141565 0 43.408696 43.408696 0 0 1-21.593043-37.576347V86.505739c0-23.974957 19.344696-43.386435 43.186087-43.386435z m24.665043 532.947479a213.904696 213.904696 0 0 1 152.576 63.532521 216.197565 216.197565 0 0 1 63.176348 153.377392 216.197565 216.197565 0 0 1-63.176348 153.377391 213.904696 213.904696 0 0 1-152.576 63.510261 213.882435 213.882435 0 0 1-152.576-63.510261A216.175304 216.175304 0 0 1 690.086957 792.976696a216.153043 216.153043 0 0 1 63.176347-153.377392 213.882435 213.882435 0 0 1 152.576-63.532521z" fill="#4C4C4C" opacity=".738" p-id="1396"></path></svg>